<svg width="24" height="24" viewBox="0 0 24 24" fill="none" xmlns="http://www.w3.org/2000/svg">
<path d="M19.0014 17.62C20.2772 17.62 21.3114 16.5858 21.3114 15.31C21.3114 14.0342 20.2772 13 19.0014 13C17.7256 13 16.6914 14.0342 16.6914 15.31C16.6914 16.5858 17.7256 17.62 19.0014 17.62Z" fill="#597EF7"/>
<path d="M19.8015 18.9398C19.2715 18.8898 18.7215 18.8898 18.1915 18.9398C16.5115 19.0998 15.1615 20.4298 15.0015 22.1098C14.9915 22.2498 15.0315 22.3898 15.1315 22.4898C15.2315 22.5898 15.3615 22.6598 15.5015 22.6598H22.5015C22.6415 22.6598 22.7815 22.5998 22.8715 22.4998C22.9615 22.3998 23.0115 22.2598 23.0015 22.1198C22.8315 20.4298 21.4915 19.0998 19.8015 18.9398Z" fill="#597EF7"/>
<path opacity="0.4" d="M16.19 2H7.81C4.17 2 2 4.17 2 7.81V16.18C2 19.83 4.17 22 7.81 22H16.18C19.82 22 21.99 19.83 21.99 16.19V7.81C22 4.17 19.83 2 16.19 2Z" fill="#597EF7"/>
<path d="M16.8299 8.41047C16.7599 8.24047 16.6199 8.10047 16.4499 8.03047C16.3699 8.00047 16.2799 7.98047 16.1899 7.98047H14.3299C13.9399 7.98047 13.6299 8.29047 13.6299 8.68047C13.6299 9.07047 13.9399 9.38047 14.3299 9.38047H14.5099L12.3999 11.4905L11.3799 9.97047C11.2599 9.80047 11.0799 9.68047 10.8699 9.66047C10.6499 9.64047 10.4599 9.71047 10.3099 9.86047L7.32994 12.8405C7.05994 13.1105 7.05994 13.5505 7.32994 13.8305C7.46994 13.9705 7.63994 14.0305 7.81994 14.0305C7.99994 14.0305 8.17994 13.9605 8.30994 13.8305L10.6899 11.4505L11.7099 12.9705C11.8299 13.1405 12.0099 13.2605 12.2199 13.2805C12.4399 13.3005 12.6299 13.2305 12.7799 13.0805L15.4999 10.3605V10.5405C15.4999 10.9305 15.8099 11.2405 16.1999 11.2405C16.5899 11.2405 16.8999 10.9305 16.8999 10.5405V8.67047C16.8799 8.58047 16.8699 8.49047 16.8299 8.41047Z" fill="#597EF7"/>
</svg>
