<svg width="24" height="24" viewBox="0 0 24 24" fill="none" xmlns="http://www.w3.org/2000/svg">
<path d="M15.9697 7.96967C16.2626 7.67678 16.7374 7.67678 17.0303 7.96967C17.3232 8.26256 17.3232 8.73732 17.0303 9.03022L12.8301 13.2304C12.6713 13.3891 12.4499 13.4682 12.2266 13.4462C12.003 13.4241 11.8004 13.3031 11.6758 13.1162L10.583 11.4765L8.03028 14.0302C7.73738 14.3231 7.26262 14.3231 6.96973 14.0302C6.67684 13.7373 6.67684 13.2626 6.96973 12.9697L10.1699 9.76947L10.2324 9.71381C10.3842 9.59271 10.578 9.53443 10.7734 9.55365C10.997 9.57579 11.1996 9.6968 11.3242 9.88373L12.416 11.5224L15.9697 7.96967Z" fill="black"/>
<path d="M15.75 10.5V9.25H14.5C14.0858 9.25 13.75 8.91421 13.75 8.5C13.75 8.08579 14.0858 7.75 14.5 7.75H16.5C16.9142 7.75 17.25 8.08579 17.25 8.5V10.5C17.25 10.9142 16.9142 11.25 16.5 11.25C16.0858 11.25 15.75 10.9142 15.75 10.5Z" fill="black"/>
<path d="M2.75 15V9C2.75 6.57397 3.23974 5.0708 4.15527 4.15527C5.0708 3.23974 6.57397 2.75 9 2.75H15C17.426 2.75 18.9292 3.23974 19.8447 4.15527C20.7603 5.0708 21.25 6.57397 21.25 9V12C21.25 12.4142 21.5858 12.75 22 12.75C22.4142 12.75 22.75 12.4142 22.75 12V9C22.75 6.42603 22.2397 4.4292 20.9053 3.09473C19.5708 1.76026 17.574 1.25 15 1.25H9C6.42603 1.25 4.4292 1.76026 3.09473 3.09473C1.76026 4.4292 1.25 6.42603 1.25 9V15C1.25 17.574 1.76026 19.5708 3.09473 20.9053C4.4292 22.2397 6.42603 22.75 9 22.75H13C13.4142 22.75 13.75 22.4142 13.75 22C13.75 21.5858 13.4142 21.25 13 21.25H9C6.57397 21.25 5.0708 20.7603 4.15527 19.8447C3.23974 18.9292 2.75 17.426 2.75 15Z" fill="black"/>
<path d="M20.5601 15.8096C20.5598 15.2243 20.0848 14.75 19.4995 14.75C18.9144 14.7502 18.4402 15.2245 18.4399 15.8096C18.4399 16.3948 18.9143 16.8699 19.4995 16.8701C20.0849 16.8701 20.5601 16.395 20.5601 15.8096ZM22.0601 15.8096C22.0601 17.2234 20.9134 18.3701 19.4995 18.3701C18.0859 18.3699 16.9399 17.2233 16.9399 15.8096C16.9402 14.3961 18.086 13.2502 19.4995 13.25C20.9132 13.25 22.0598 14.3959 22.0601 15.8096Z" fill="black"/>
<path d="M18.667 19.194C19.2223 19.1396 19.7788 19.1399 20.3262 19.194L20.3272 19.1931C20.3291 19.1932 20.3311 19.1939 20.333 19.194H20.335L20.334 19.195C22.0264 19.3499 23.3912 20.6079 23.6992 22.2536L23.7461 22.5886L23.75 22.6647C23.7483 23.045 23.4588 23.3695 23.0723 23.4069C22.6857 23.4443 22.3391 23.1812 22.2647 22.8083L22.2539 22.7321L22.2246 22.531C22.0389 21.5383 21.2162 20.779 20.1934 20.6872H20.1856C19.7358 20.6422 19.2752 20.642 18.8135 20.6872H18.8125C17.7132 20.7933 16.8512 21.6462 16.7461 22.7321L16.7354 22.8083C16.6609 23.1812 16.3144 23.4443 15.9277 23.4069C15.5156 23.367 15.2142 23.0008 15.2539 22.5886L15.2734 22.4196C15.5187 20.6882 16.9232 19.3639 18.667 19.195V19.194Z" fill="black"/>
</svg>
