<svg width="24" height="24" viewBox="0 0 24 24" fill="none" xmlns="http://www.w3.org/2000/svg">
<path d="M11 3.00122C15.42 3.00122 19 4.79122 19 7.00122C19 9.21122 15.42 11.0012 11 11.0012C6.58 11.0012 3 9.21122 3 7.00122C3 4.79122 6.58 3.00122 11 3.00122ZM19 12.0312C17.11 12.2412 15.57 13.6212 15.13 15.4312C13.92 15.7912 12.5 16.0012 11 16.0012C6.58 16.0012 3 14.2112 3 12.0012V9.00122C3 11.2112 6.58 13.0012 11 13.0012C15.42 13.0012 19 11.2112 19 9.00122V12.0312ZM14 17.7112V20.7112C13.07 20.9012 12.06 21.0012 11 21.0012C6.58 21.0012 3 19.2112 3 17.0012V14.0012C3 16.2112 6.58 18.0012 11 18.0012C12.06 18.0012 13.07 17.9012 14 17.7112ZM19.5 14.0012C20.163 14.0012 20.7989 14.2646 21.2678 14.7335C21.7366 15.2023 22 15.8382 22 16.5012V17.0012C22.2652 17.0012 22.5196 17.1066 22.7071 17.2941C22.8946 17.4816 23 17.736 23 18.0012V22.0012C23 22.2664 22.8946 22.5208 22.7071 22.7083C22.5196 22.8959 22.2652 23.0012 22 23.0012H17C16.7348 23.0012 16.4804 22.8959 16.2929 22.7083C16.1054 22.5208 16 22.2664 16 22.0012V18.0012C16 17.736 16.1054 17.4816 16.2929 17.2941C16.4804 17.1066 16.7348 17.0012 17 17.0012V16.5012C17 15.8382 17.2634 15.2023 17.7322 14.7335C18.2011 14.2646 18.837 14.0012 19.5 14.0012ZM19.5 15.0012C19.1022 15.0012 18.7206 15.1593 18.4393 15.4406C18.158 15.7219 18 16.1034 18 16.5012V17.0012H21V16.5012C21 16.1034 20.842 15.7219 20.5607 15.4406C20.2794 15.1593 19.8978 15.0012 19.5 15.0012Z" fill="white"/>
</svg>
