<svg width="24" height="24" viewBox="0 0 24 24" fill="none" xmlns="http://www.w3.org/2000/svg">
<mask id="mask0_1338_7614" style="mask-type:alpha" maskUnits="userSpaceOnUse" x="0" y="0" width="24" height="24">
<rect width="24" height="24" fill="#D9D9D9"/>
</mask>
<g mask="url(#mask0_1338_7614)">
<path d="M14.25 9.5C14.25 7.6058 14.6623 5.85336 15.3652 4.54785C15.4089 4.4667 15.4541 4.38653 15.501 4.30762L5.57812 6.11133C4.72463 6.26651 4.36007 6.33894 4.10937 6.43945L4.00781 6.48438C3.50725 6.73032 3.11812 7.15173 2.91211 7.66406L2.83594 7.88867C2.75735 8.16535 2.75 8.50897 2.75 9.5C2.75 10.491 2.75735 10.8347 2.83594 11.1113L2.91211 11.3359C3.11812 11.8483 3.50725 12.2697 4.00781 12.5156L4.10937 12.5605C4.36007 12.6611 4.72463 12.7335 5.57812 12.8887L15.501 14.6914C15.4543 14.6127 15.4088 14.5331 15.3652 14.4521C14.6623 13.1466 14.25 11.3942 14.25 9.5ZM6.1416 19.4609L6.16699 19.7959C6.17472 19.8855 6.18235 19.9559 6.1914 20.0156C6.20814 20.1261 6.22199 20.1382 6.21387 20.124L6.26074 20.1826C6.27901 20.1997 6.29951 20.2146 6.32226 20.2256L6.33008 20.2266C6.34549 20.23 6.37673 20.2358 6.43262 20.2402C6.55315 20.2498 6.71583 20.25 6.99023 20.25H8.77246C9.08515 20.25 9.27312 20.249 9.41211 20.2373C9.54205 20.2264 9.55685 20.2103 9.53906 20.2197L9.60351 20.1699C9.62205 20.1499 9.6372 20.1268 9.64844 20.1016L9.64941 20.0938C9.65231 20.0758 9.65578 20.0389 9.65625 19.9736C9.65674 19.9039 9.65379 19.8221 9.64746 19.7188L9.62012 19.335L9.29199 15.0879L5.7832 14.4502L6.1416 19.4609ZM15.75 9.5C15.75 11.1955 16.1218 12.6932 16.6855 13.7402C17.11 14.5284 17.5859 14.9704 18.0293 15.1514L18.5547 15.2471C19.1021 15.2197 19.7531 14.7828 20.3145 13.7402C20.8782 12.6932 21.25 11.1955 21.25 9.5C21.25 7.80449 20.8782 6.30678 20.3145 5.25977C19.753 4.21716 19.1021 3.77928 18.5547 3.75195L18.0293 3.84766C17.5858 4.02849 17.1101 4.47136 16.6855 5.25977C16.1218 6.30678 15.75 7.80449 15.75 9.5ZM22.75 9.5C22.75 11.3942 22.3377 13.1466 21.6348 14.4521C20.9482 15.7269 19.8744 16.75 18.5 16.75C18.1938 16.75 17.9034 16.6965 17.6279 16.6035L10.8184 15.3652L11.1152 19.2197L11.1445 19.6279C11.1523 19.7562 11.157 19.8757 11.1562 19.9844C11.155 20.1534 11.1415 20.3364 11.0879 20.5225L11.0195 20.71C10.8819 21.0201 10.6577 21.2828 10.375 21.4668L10.25 21.541C10.0096 21.6704 9.7626 21.7135 9.53808 21.7324C9.32159 21.7506 9.05958 21.75 8.77246 21.75H6.99023C6.73976 21.75 6.50787 21.7507 6.31445 21.7354C6.16237 21.7233 5.99979 21.6997 5.83496 21.6436L5.66992 21.5762C5.39229 21.4421 5.15577 21.2372 4.9834 20.9834L4.91308 20.8711C4.79118 20.6586 4.73941 20.4411 4.70898 20.2402C4.69446 20.1443 4.6827 20.0387 4.67285 19.9258L4.64551 19.5674L4.25879 14.1592C3.98796 14.098 3.75132 14.033 3.53613 13.9463L3.34668 13.8623C2.4526 13.4231 1.77278 12.6474 1.45215 11.71L1.39258 11.5205C1.24297 10.9935 1.25 10.3942 1.25 9.5C1.25 8.60582 1.24297 8.0065 1.39258 7.47949L1.45215 7.29004C1.77278 6.3526 2.4526 5.57688 3.34668 5.1377L3.53613 5.05371C3.99076 4.87047 4.53959 4.77574 5.30957 4.63574L17.6279 2.39648C17.9034 2.30345 18.1938 2.25 18.5 2.25C19.8744 2.25 20.9482 3.27311 21.6348 4.54785C22.3377 5.85336 22.75 7.6058 22.75 9.5Z" fill="black"/>
</g>
</svg>
