<svg width="60" height="60" viewBox="0 0 60 60" fill="none" xmlns="http://www.w3.org/2000/svg">
<mask id="mask0_26_6195" style="mask-type:alpha" maskUnits="userSpaceOnUse" x="0" y="0" width="60" height="60">
<rect width="60" height="60" fill="#D9D9D9"/>
</mask>
<g mask="url(#mask0_26_6195)">
<path d="M29.3941 17.1547L29.4625 17.1151L29.5417 3.28516L26.9689 4.77073L26.8789 18.6091L29.3917 17.1559L29.3941 17.1547Z" fill="#949AB6"/>
<path d="M34.457 14.2273L36.7838 12.8797L36.803 8.21289L34.4414 9.58333L34.457 14.2273Z" fill="#949AB6"/>
<path d="M20.0096 17.5936C20.0096 18.8104 20.0096 20.3332 20.0192 22.2304C20.5021 22.162 20.9695 22.0101 21.4004 21.7816L25.6136 19.3432L25.7036 5.5L19.9844 8.80117C20.0024 16.1188 20.0084 17.9008 20.0096 17.5936Z" fill="#949AB6"/>
<path d="M46.9336 22.4668V23.6668L47.9728 23.0668L46.9336 22.4668Z" fill="#949AB6"/>
<path d="M36.1649 7.11609L34.4297 6.11523L34.4357 8.1157L36.1649 7.11609Z" fill="#949AB6"/>
<path d="M33.1584 1.20117L30.8136 2.55476L30.7344 16.3812L33.204 14.952C33.198 15.0792 33.1584 2.44437 33.1584 1.20117Z" fill="#949AB6"/>
<path d="M38.0957 36.9574L38.1077 30.445V30.4354C38.1171 29.9329 38.2552 29.4411 38.509 29.0072C38.7628 28.5733 39.1238 28.2119 39.5573 27.9574L45.6677 24.4031L45.6737 21.2207L25.6169 32.8211C23.5907 33.8546 21.3485 34.3934 19.0739 34.3934C16.7993 34.3934 14.5571 33.8546 12.5309 32.8211C11.9138 32.4803 11.3512 32.0491 10.8617 31.5418C10.8365 42.7462 10.8293 45.7703 10.8281 46.4423V46.5166C10.8281 46.603 10.8281 46.6235 10.8281 46.6115C10.9026 47.2822 11.1517 47.9215 11.5508 48.4657C11.9499 49.0099 12.4848 49.4397 13.1021 49.7123C14.9378 50.6424 16.9668 51.1271 19.0247 51.1271C21.0826 51.1271 23.1116 50.6424 24.9473 49.7123L45.6353 37.7339V35.6555C45.9509 35.4731 40.8737 38.4155 40.7429 38.4875C40.4745 38.6427 40.17 38.7244 39.86 38.7245C39.55 38.7245 39.2454 38.6429 38.977 38.4878C38.7086 38.3326 38.4858 38.1095 38.3311 37.8408C38.1764 37.5722 38.0952 37.2675 38.0957 36.9574Z" fill="#949AB6"/>
<path d="M40.1895 29.0524C39.9469 29.2009 39.7448 29.4072 39.6014 29.6528C39.4579 29.8984 39.3776 30.1757 39.3675 30.46L39.3555 36.9628C39.3566 37.0513 39.3809 37.1379 39.4259 37.2141C39.4709 37.2903 39.535 37.3534 39.6119 37.3972C39.6887 37.441 39.7757 37.4639 39.8642 37.4637C39.9527 37.4635 40.0396 37.4402 40.1163 37.396L48.5679 32.4844L48.5883 24.166L40.1895 29.0524ZM44.0487 33.3304C43.8353 33.4924 43.5789 33.5879 43.3116 33.6052C43.0442 33.6226 42.7777 33.5609 42.5452 33.4279C42.3126 33.2948 42.1243 33.0963 42.0038 32.8571C41.8832 32.6178 41.8356 32.3484 41.8671 32.0824C41.8941 31.5218 42.0546 30.9759 42.3354 30.49C42.6161 30.004 43.0089 29.5922 43.4811 29.2888C43.6941 29.1288 43.9495 29.0347 44.2154 29.0184C44.4814 29.002 44.7463 29.0641 44.9774 29.1968C45.2085 29.3295 45.3955 29.527 45.5154 29.765C45.6353 30.003 45.6827 30.2709 45.6519 30.5356C45.6284 31.0954 45.4705 31.6413 45.1914 32.1271C44.9124 32.613 44.5204 33.0245 44.0487 33.3268V33.3304Z" fill="#949AB6"/>
<path d="M13.4031 23.976C15.2162 24.85 17.206 25.295 19.2186 25.2767C21.2312 25.2584 23.2126 24.7772 25.0095 23.8704L45.0699 12.2496L42.7287 10.8984L22.0347 22.8792C21.1178 23.338 20.1067 23.5768 19.0815 23.5768C18.0563 23.5768 17.0452 23.338 16.1283 22.8792C15.7142 22.7155 15.3584 22.4318 15.1067 22.0644C14.855 21.6971 14.7188 21.2629 14.7156 20.8176C14.7123 20.3723 14.8423 19.9361 15.0886 19.5652C15.335 19.1942 15.6866 18.9054 16.0983 18.7356L18.7383 17.2044L18.7311 14.496L13.1331 17.7432C12.5239 18.0089 11.9956 18.4304 11.6012 18.9653C11.2068 19.5002 10.9604 20.1295 10.8867 20.79C10.9845 21.497 11.2693 22.1651 11.7116 22.7252C12.154 23.2853 12.738 23.7172 13.4031 23.976Z" fill="#949AB6"/>
<path d="M12.4676 50.8053C11.8569 50.4551 11.3 50.0186 10.814 49.5093L10.8008 54.2853C10.8775 54.9569 11.1291 55.5966 11.5304 56.1406C11.9318 56.6845 12.4689 57.1136 13.088 57.3849C14.9208 58.3162 16.9475 58.8016 19.0034 58.8016C21.0592 58.8016 23.086 58.3162 24.9188 57.3849L32.6144 52.8573L45.6164 45.403L45.6296 39.1953L25.5776 50.8053C23.5459 51.8348 21.3002 52.3714 19.0226 52.3714C16.7449 52.3714 14.4993 51.8348 12.4676 50.8053Z" fill="#949AB6"/>
<path d="M13.1556 31.7276C14.9866 32.6611 17.0127 33.1477 19.068 33.1477C21.1232 33.1477 23.1493 32.6611 24.9804 31.7276L45.6744 19.7588L45.6876 13.3496L25.6404 24.9572C23.6341 25.9755 21.4179 26.5116 19.1681 26.5228C16.9182 26.5341 14.6967 26.0202 12.6804 25.022C12.0197 24.664 11.4136 24.2135 10.8804 23.684L10.8672 28.7023C10.9562 29.3608 11.2136 29.9853 11.6145 30.5152C12.0154 31.0452 12.5461 31.4628 13.1556 31.7276Z" fill="#949AB6"/>
<path d="M16.7591 21.7875C17.3767 22.1101 18.0594 22.2885 18.7559 22.3095L18.7463 18.6699L16.7447 19.8255C15.7067 20.4255 15.7403 21.1935 16.7591 21.7875Z" fill="#949AB6"/>
</g>
</svg>
