<svg width="60" height="60" viewBox="0 0 60 60" fill="none" xmlns="http://www.w3.org/2000/svg">
<mask id="mask0_26_6183" style="mask-type:alpha" maskUnits="userSpaceOnUse" x="0" y="0" width="60" height="60">
<rect width="60" height="60" fill="#D9D9D9"/>
</mask>
<g mask="url(#mask0_26_6183)">
<path d="M38.6681 2.40039L1.82812 23.674L13.0421 30.1912L49.8821 8.91759L38.6681 2.40039ZM44.4533 9.70242L13.8041 27.4012C13.7122 27.4569 13.6068 27.4864 13.4993 27.4864C13.3918 27.4864 13.2864 27.4569 13.1945 27.4012L7.24973 23.9464C7.15712 23.8923 7.0803 23.8148 7.02691 23.7217C6.97352 23.6287 6.94543 23.5233 6.94543 23.416C6.94543 23.3087 6.97352 23.2033 7.02691 23.1102C7.0803 23.0172 7.15712 22.9398 7.24973 22.8856L37.8989 5.18682C37.9923 5.13545 38.0972 5.10852 38.2037 5.10852C38.3103 5.10852 38.4151 5.13545 38.5085 5.18682L44.4533 8.65242C44.5479 8.70313 44.6265 8.77914 44.6803 8.87196C44.7341 8.96478 44.7611 9.07074 44.7581 9.178C44.7598 9.28486 44.7323 9.39015 44.6786 9.48254C44.6249 9.57494 44.547 9.65096 44.4533 9.70242Z" fill="#949AB6"/>
<path d="M1.19922 24.7695C1.25082 43.3515 1.26643 48.5476 1.27003 49.7656C1.27003 49.6456 1.27003 49.6239 1.27003 49.9551V50.0907L12.4768 56.6032L12.406 31.2831L1.19922 24.7695Z" fill="#949AB6"/>
<path d="M17.5239 47.115C17.4276 47.1701 17.3186 47.1991 17.2076 47.199C17.0967 47.1989 16.9877 47.1697 16.8915 47.1143C16.7954 47.059 16.7154 46.9794 16.6596 46.8835C16.6038 46.7876 16.5741 46.6787 16.5735 46.5678L16.5519 35.5698C16.5519 35.4584 16.5811 35.349 16.6367 35.2525C16.6923 35.1561 16.7723 35.076 16.8687 35.0202L44.6175 18.9942C44.7138 18.939 44.8228 18.91 44.9337 18.9102C45.0447 18.9103 45.1537 18.9395 45.2498 18.9948C45.346 19.0502 45.426 19.1298 45.4818 19.2257C45.5376 19.3216 45.5672 19.4304 45.5679 19.5414L45.5931 30.5417C45.5898 30.6327 45.5666 30.7219 45.5252 30.803C45.4837 30.8841 45.4249 30.9551 45.3531 31.011L50.5863 34.0494L50.5119 10.0098L13.6719 31.2798L13.7427 56.6082L33.3675 45.2718L27.0543 41.6034L17.5239 47.115Z" fill="#949AB6"/>
<path d="M39.3666 28.998L36.9102 30.4165L56.3502 41.7108L58.8077 40.2924L39.3666 28.998Z" fill="#949AB6"/>
<path d="M33.3281 32.4908L52.7549 43.7804L55.0769 42.44L35.6501 31.1504L33.3281 32.4908Z" fill="#949AB6"/>
<path d="M23.5742 38.1137L40.6334 48.0317H40.643L40.6574 48.0413L43.0058 49.4069L51.4934 44.5073L32.0594 33.2129L23.5742 38.1137ZM34.907 41.1989C34.8223 41.344 34.6835 41.4495 34.521 41.4923C34.3586 41.5351 34.1858 41.5115 34.0406 41.4269L28.5722 38.2493C28.4271 38.1649 28.3214 38.0264 28.2784 37.8642C28.2355 37.7019 28.2587 37.5292 28.343 37.3841C28.4274 37.239 28.5659 37.1333 28.7281 37.0903C28.8904 37.0473 29.0631 37.0706 29.2082 37.1549L34.6778 40.3337C34.8234 40.4176 34.9297 40.5558 34.9734 40.7181C35.0171 40.8803 34.9945 41.0533 34.9106 41.1989H34.907ZM41.657 41.8997C41.6153 41.9716 41.5598 42.0346 41.4937 42.085C41.4277 42.1355 41.3523 42.1724 41.2719 42.1937C41.1916 42.215 41.1078 42.2202 41.0254 42.2091C40.943 42.198 40.8637 42.1707 40.7918 42.1289L30.6098 36.2117C30.4647 36.1275 30.3589 35.9891 30.3159 35.827C30.2728 35.6648 30.2958 35.4922 30.38 35.3471C30.4642 35.202 30.6026 35.0962 30.7647 35.0531C30.9269 35.01 31.0995 35.0331 31.2446 35.1173L41.4278 41.0345C41.4997 41.0762 41.5627 41.1317 41.6131 41.1978C41.6636 41.2638 41.7005 41.3392 41.7218 41.4196C41.7431 41.4999 41.7483 41.5837 41.7372 41.6661C41.7261 41.7484 41.6988 41.8279 41.657 41.8997Z" fill="#949AB6"/>
<path d="M41.9928 27.4793L40.6308 28.2665L44.1216 30.2908L44.322 30.1708L44.3004 20.6309L17.8164 35.9309L17.838 45.472L25.7928 40.8749L22.302 38.8456L20.7768 39.7265C20.6319 39.802 20.4635 39.8186 20.3066 39.7729C20.1498 39.7272 20.0166 39.6226 19.935 39.4811C19.8534 39.3396 19.8296 39.172 19.8687 39.0133C19.9077 38.8546 20.0065 38.7172 20.1444 38.6297C31.7748 31.9097 42.0444 25.984 41.3568 26.3896C41.4288 26.3481 41.5082 26.3212 41.5905 26.3104C41.6729 26.2995 41.7565 26.305 41.8368 26.3265C41.917 26.348 41.9922 26.3851 42.0581 26.4357C42.124 26.4863 42.1793 26.5493 42.2208 26.6213C42.2623 26.6932 42.2893 26.7726 42.3001 26.8549C42.311 26.9373 42.3055 27.021 42.2839 27.1012C42.2624 27.1815 42.2254 27.2567 42.1748 27.3226C42.1242 27.3885 42.0611 27.4437 41.9892 27.4853L41.9928 27.4793Z" fill="#949AB6"/>
</g>
</svg>
