<svg width="24" height="24" viewBox="0 0 24 24" fill="none" xmlns="http://www.w3.org/2000/svg">
<mask id="mask0_1323_6904" style="mask-type:alpha" maskUnits="userSpaceOnUse" x="0" y="0" width="24" height="24">
<rect width="24" height="24" fill="#D9D9D9"/>
</mask>
<g mask="url(#mask0_1323_6904)">
<path opacity="0.4" d="M5.39386 19.5132L5 13.54L8.78181 14.2207C9.21767 14.2992 9.43561 14.3384 9.60376 14.4469C9.75215 14.5427 9.87252 14.6761 9.95265 14.8335C10.0434 15.0118 10.0602 15.2326 10.0938 15.6742L10.3675 19.2765C10.4135 19.8749 10.4365 20.1741 10.3342 20.4047C10.2443 20.6073 10.0897 20.7744 9.89451 20.8795C9.67242 20.9992 9.37234 20.9992 8.7722 20.9992H6.98979C6.46481 20.9992 6.20232 20.9992 5.99629 20.8997C5.81489 20.8121 5.66417 20.6718 5.56387 20.4971C5.44996 20.2987 5.43126 20.0369 5.39386 19.5132Z" fill="#597EF7"/>
<path d="M17.8193 3.12305C16.2122 3.71139 15 6.34272 15 9.5C15 12.6571 16.2123 15.2874 17.8193 15.876L5.44336 13.626C4.51612 13.4574 4.05266 13.3726 3.67773 13.1885C2.91503 12.8138 2.34656 12.1338 2.11426 11.3164C2.00011 10.9145 2 10.4427 2 9.5C2 8.5573 2.00011 8.08548 2.11426 7.68359C2.34656 6.86622 2.91503 6.18617 3.67773 5.81152C4.05266 5.62739 4.51612 5.54261 5.44336 5.37402L17.8193 3.12305Z" fill="#597EF7"/>
<path opacity="0.4" d="M22 9.5C22 13.0899 20.433 16 18.5 16C16.567 16 15 13.0899 15 9.5C15 5.91015 16.567 3 18.5 3C20.433 3 22 5.91015 22 9.5Z" fill="#597EF7"/>
</g>
</svg>
