<svg width="60" height="60" viewBox="0 0 60 60" fill="none" xmlns="http://www.w3.org/2000/svg">
<mask id="mask0_26_6210" style="mask-type:alpha" maskUnits="userSpaceOnUse" x="0" y="0" width="60" height="60">
<rect width="60" height="60" fill="#D9D9D9"/>
</mask>
<g mask="url(#mask0_26_6210)">
<path d="M7.71094 28.3145L7.78535 54.5237L11.0481 56.4209L10.9761 30.2104L7.71094 28.3145Z" fill="#949AB6"/>
<path d="M12.2422 30.9473L12.3153 57.1576L15.1281 58.792L15.055 32.5817L12.2422 30.9473Z" fill="#949AB6"/>
<path d="M27.2827 21.4941L12.8359 29.8293L15.6906 31.4877L30.1315 23.1513L27.2827 21.4941Z" fill="#949AB6"/>
<path d="M22.7803 18.875L8.33594 27.2138L11.5759 29.0942L26.0228 20.759L22.7803 18.875Z" fill="#949AB6"/>
<path d="M47.9969 2.85842L45.148 1.20117L30.6953 9.5376L33.5513 11.1972L47.9969 2.85842Z" fill="#949AB6"/>
<path d="M18.6689 16.4902L18.5586 16.5539L18.5873 16.537L18.6689 16.4902Z" fill="#949AB6"/>
<path d="M18.6687 16.4902L18.5872 16.537L18.5451 16.5611L18.5584 16.5539L18.5344 16.5671L18.4432 16.6199L4.21484 24.8255L7.07319 26.4863L21.5187 18.1475L18.6687 16.4902Z" fill="#949AB6"/>
<path d="M3.59766 25.9258L3.67207 52.1338L6.51973 53.7886L6.44531 27.5782L3.59766 25.9258Z" fill="#949AB6"/>
<path d="M53.7495 6.20508L39.3086 14.5414L42.1658 16.201L56.6055 7.86467L53.7495 6.20508Z" fill="#949AB6"/>
<path d="M53.4708 15.5098L42.8125 21.6706C42.8125 22.501 42.858 38.5042 42.8592 39.1414L53.5189 32.9914L53.4708 15.5098ZM48.1908 30.2218C47.9197 30.4376 47.5902 30.5673 47.2447 30.5942C46.8992 30.6212 46.5536 30.5442 46.2522 30.373C45.9509 30.2019 45.7077 29.9445 45.5538 29.634C45.4 29.3235 45.3425 28.974 45.3889 28.6306C45.4236 27.8447 45.6476 27.0789 46.0419 26.3982C46.4361 25.7175 46.9888 25.1421 47.6532 24.721C47.9236 24.5047 48.2528 24.3746 48.598 24.3475C48.9432 24.3204 49.2886 24.3976 49.5895 24.569C49.8903 24.7405 50.1327 24.9982 50.2854 25.309C50.4381 25.6198 50.4939 25.9693 50.4457 26.3122C50.4097 27.0966 50.1863 27.8611 49.7939 28.5413C49.4016 29.2216 48.8518 29.7978 48.1908 30.2218Z" fill="#949AB6"/>
<path d="M38.0476 13.8098L52.4896 5.47222L49.2557 3.5918L34.8125 11.9294L38.0476 13.8098Z" fill="#949AB6"/>
<path d="M42.8008 17.3213L42.808 20.2121L53.7855 13.8677C53.8815 13.8124 53.9904 13.7833 54.1012 13.7833C54.212 13.7834 54.3207 13.8124 54.4167 13.8677C54.5127 13.923 54.5926 14.0025 54.6481 14.0984C54.7037 14.1942 54.7332 14.3029 54.7335 14.4137L54.7839 33.3533C54.7842 33.4645 54.7551 33.574 54.6997 33.6704C54.6443 33.7669 54.5645 33.8471 54.4683 33.9029L42.8644 40.5977L42.8715 43.5149L57.3123 35.1773V8.96094L42.8008 17.3213Z" fill="#949AB6"/>
<path d="M41.5696 30.7563C41.5696 30.5991 41.5696 29.0691 41.5336 17.3031L29.4316 10.2734L19.9336 15.7646L31.7092 22.6131C31.7176 22.6131 31.7213 22.6274 31.7297 22.6334C31.8142 22.6844 31.8851 22.7553 31.9361 22.8399V22.8495C31.9831 22.9349 32.009 23.0304 32.0117 23.1279C32.0117 23.1375 32.0188 23.1471 32.0188 23.1567C32.0596 35.7735 32.0837 43.1175 32.1053 49.7415L41.602 44.2503C41.5696 32.3379 41.566 30.8955 41.5648 30.7659L41.5696 30.7563Z" fill="#949AB6"/>
<path d="M19.8592 53.8798C19.7631 53.935 19.6542 53.9641 19.5434 53.964C19.4326 53.964 19.3236 53.9349 19.2276 53.8797C19.1315 53.8244 19.0517 53.7449 18.996 53.6492C18.9403 53.5534 18.9106 53.4447 18.91 53.3339L18.8476 34.4063C18.8475 34.295 18.8764 34.1857 18.9318 34.0893C18.9872 33.9928 19.067 33.9126 19.1631 33.8566L30.7708 27.1499L30.7612 24.2578L16.3203 32.5822L16.3924 58.801L30.8451 50.4647L30.8356 47.5474L19.8592 53.8798Z" fill="#949AB6"/>
<path d="M30.8344 46.0903C30.8344 46.2187 30.7781 28.7394 30.7769 28.6074L20.1172 34.7683L20.1749 52.2391L30.8344 46.0903ZM25.4536 37.5307C25.7253 37.316 26.055 37.1875 26.4003 37.1619C26.7457 37.1362 27.0908 37.2145 27.3912 37.3867C27.6916 37.559 27.9336 37.8172 28.0859 38.1282C28.2383 38.4391 28.294 38.7885 28.246 39.1314C28.2116 39.9162 27.9887 40.6813 27.5962 41.3617C27.2038 42.0422 26.6533 42.6182 25.9912 43.041C25.7198 43.256 25.3903 43.385 25.0451 43.4116C24.6998 43.4381 24.3546 43.3609 24.0535 43.19C23.7524 43.0191 23.5091 42.7622 23.3549 42.4522C23.2007 42.1421 23.1427 41.7931 23.1881 41.4499C23.2228 40.6626 23.4469 39.8952 23.8413 39.213C24.2357 38.5307 24.7887 37.9536 25.4536 37.5307Z" fill="#949AB6"/>
</g>
</svg>
