<svg width="32" height="32" viewBox="0 0 32 32" fill="none" xmlns="http://www.w3.org/2000/svg">
<circle cx="16" cy="16" r="16" fill="url(#paint0_linear_26_6341)"/>
<path fill-rule="evenodd" clip-rule="evenodd" d="M10.75 5C7.57436 5 5 7.57436 5 10.75V20.75C5 23.9256 7.57436 26.5 10.75 26.5H20.75C23.9256 26.5 26.5 23.9256 26.5 20.75V10.75C26.5 7.57436 23.9256 5 20.75 5H10.75ZM14.8965 15.5C14.57 14.3457 13.5088 13.5 12.25 13.5C10.7312 13.5 9.5 14.7312 9.5 16.25C9.5 17.7688 10.7312 19 12.25 19C13.5088 19 14.57 18.1543 14.8965 17L18.749 17L18.75 17L18.751 17H21.2488H21.25C21.6383 17 21.9577 16.7049 21.9961 16.3267C21.9987 16.3015 22 16.2759 22 16.25V14.25C22 13.8358 21.6642 13.5 21.25 13.5C20.8358 13.5 20.5 13.8358 20.5 14.25V15.5H19.5V14.25C19.5 13.8358 19.1642 13.5 18.75 13.5C18.3358 13.5 18 13.8358 18 14.25V15.5L14.8965 15.5ZM13.5 16.25C13.5 15.5596 12.9404 15 12.25 15C11.5596 15 11 15.5596 11 16.25C11 16.9404 11.5596 17.5 12.25 17.5C12.9404 17.5 13.5 16.9404 13.5 16.25Z" fill="white"/>
<defs>
<linearGradient id="paint0_linear_26_6341" x1="0" y1="16" x2="32" y2="16" gradientUnits="userSpaceOnUse">
<stop stop-color="#84ACEF"/>
<stop offset="1" stop-color="#6C80AA"/>
</linearGradient>
</defs>
</svg>
