<svg width="24" height="24" viewBox="0 0 24 24" fill="none" xmlns="http://www.w3.org/2000/svg">
<path opacity="0.4" d="M9 7.2V16.79C9 20 11 22 14.2 22H16.79C19.99 22 21.99 20 21.99 16.8V7.2C22 4 20 2 16.8 2H14.2C11 2 9 4 9 7.2Z" fill="#597EF7"/>
<path d="M5.57 8.11953L2.22 11.4695C1.93 11.7595 1.93 12.2395 2.22 12.5295L5.57 15.8795C5.86 16.1695 6.34 16.1695 6.63 15.8795C6.92 15.5895 6.92 15.1095 6.63 14.8195L4.56 12.7495H15.25C15.66 12.7495 16 12.4095 16 11.9995C16 11.5895 15.66 11.2495 15.25 11.2495H4.56L6.63 9.17953C6.78 9.02953 6.85 8.83953 6.85 8.64953C6.85 8.45953 6.78 8.25953 6.63 8.11953C6.34 7.81953 5.87 7.81953 5.57 8.11953Z" fill="#597EF7"/>
</svg>
