<svg width="24" height="24" viewBox="0 0 24 24" fill="none" xmlns="http://www.w3.org/2000/svg">
<path d="M15.24 22.2705H15.11C10.67 22.2705 8.53 20.5205 8.16 16.6005C8.12 16.1905 8.42 15.8205 8.84 15.7805C9.24 15.7405 9.62 16.0505 9.66 16.4605C9.95 19.6005 11.43 20.7705 15.12 20.7705H15.25C19.32 20.7705 20.76 19.3305 20.76 15.2605V8.74047C20.76 4.67047 19.32 3.23047 15.25 3.23047H15.12C11.41 3.23047 9.93 4.42047 9.66 7.62047C9.61 8.03047 9.26 8.34047 8.84 8.30047C8.42 8.27047 8.12 7.90047 8.15 7.49047C8.49 3.51047 10.64 1.73047 15.11 1.73047H15.24C20.15 1.73047 22.25 3.83047 22.25 8.74047V15.2605C22.25 20.1705 20.15 22.2705 15.24 22.2705Z" fill="black"/>
<path d="M15 12.75H3.62C3.21 12.75 2.87 12.41 2.87 12C2.87 11.59 3.21 11.25 3.62 11.25H15C15.41 11.25 15.75 11.59 15.75 12C15.75 12.41 15.41 12.75 15 12.75Z" fill="black"/>
<path d="M5.85 16.0998C5.66 16.0998 5.47 16.0298 5.32 15.8798L1.97 12.5298C1.68 12.2398 1.68 11.7598 1.97 11.4698L5.32 8.11984C5.61 7.82984 6.09 7.82984 6.38 8.11984C6.67 8.40984 6.67 8.88984 6.38 9.17984L3.56 11.9998L6.38 14.8198C6.67 15.1098 6.67 15.5898 6.38 15.8798C6.24 16.0298 6.04 16.0998 5.85 16.0998Z" fill="black"/>
</svg>
