<svg width="24" height="24" viewBox="0 0 24 24" fill="none" xmlns="http://www.w3.org/2000/svg">
<path d="M2.85156 16.8604C2.85156 16.4461 3.18735 16.1104 3.60156 16.1104C4.01578 16.1104 4.35156 16.4461 4.35156 16.8604C4.35156 18.021 5.45396 19.0508 7.18164 19.0508C8.89598 19.0508 10.002 18.0136 10.002 16.8604C10.002 16.4461 10.3377 16.1104 10.752 16.1104C11.14 16.1105 11.4595 16.4053 11.498 16.7832L11.502 16.8604V18.8906C11.5018 21.1191 9.46461 22.75 7.18164 22.75C4.90154 22.75 2.85171 21.1216 2.85156 18.8906V16.8604ZM9.74805 19.8525C9.00913 20.303 8.1071 20.5508 7.18164 20.5508C6.25384 20.5508 5.34973 20.3059 4.60938 19.8574C5.04045 20.6474 5.98182 21.25 7.18164 21.25C8.38229 21.25 9.32067 20.6456 9.74805 19.8525Z" fill="black"/>
<path d="M2.84003 14.1094C2.84014 13.0048 3.35614 12.0379 4.13593 11.3555L5.12421 12.4834C4.62428 12.9208 4.34014 13.4943 4.34003 14.1094C4.34003 14.4652 4.43905 14.7933 4.61346 15.084C5.04196 15.7744 5.97853 16.2998 7.1701 16.2998C8.36735 16.2998 9.30083 15.7803 9.72675 15.084C9.9012 14.7932 10.0002 14.4652 10.0002 14.1094C10.0001 13.4926 9.71521 12.9171 9.21014 12.4961L9.69159 11.918L9.67499 11.9355L9.21014 12.4961L9.20038 12.4883L8.99921 12.3301C8.50835 11.9798 7.87166 11.7598 7.16034 11.7598C6.34195 11.7598 5.62983 12.04 5.12421 12.4834L4.13593 11.3555C4.93026 10.6591 5.99893 10.2598 7.16034 10.2598C8.32709 10.2599 9.39172 10.6725 10.1799 11.3516C10.9892 12.0301 11.5001 13.0106 11.5002 14.1094C11.5002 14.7536 11.3184 15.3462 11.0129 15.8555L11.0109 15.8594C10.2557 17.101 8.77046 17.7998 7.1701 17.7998C5.56575 17.7998 4.08476 17.0884 3.33124 15.8623L3.32635 15.8555L3.32733 15.8545C3.02197 15.3453 2.84003 14.7533 2.84003 14.1094Z" fill="black"/>
<path d="M10.002 14.1104C10.002 13.4942 9.71676 12.9136 9.22168 12.4785L9.02051 12.3203C8.52961 11.97 7.89299 11.75 7.18164 11.75C5.51327 11.75 4.35156 12.9002 4.35156 14.1104V16.8604C4.3518 18.0111 5.4645 19.0498 7.18164 19.0498C8.89763 19.0498 10.0017 18.022 10.002 16.8604V14.1104ZM11.502 16.8604C11.5017 19.1383 9.40529 20.5498 7.18164 20.5498C4.95908 20.5498 2.85179 19.1292 2.85156 16.8604V14.1104C2.85156 11.8805 4.89001 10.25 7.18164 10.25C8.34851 10.25 9.41295 10.6627 10.2012 11.3418L10.2051 11.3457L10.3486 11.4775C11.0497 12.153 11.502 13.0771 11.502 14.1104V16.8604Z" fill="black"/>
<path d="M21.2498 10.9697C21.2496 10.8511 21.1658 10.7374 21.033 10.707L20.9734 10.7002H18.9197C18.5608 10.7003 18.2451 10.8394 18.0174 11.0732L18.0037 11.0869L17.4979 10.5674L17.4793 10.5498L18.0037 11.0869C17.7377 11.3466 17.5894 11.7167 17.6268 12.1094L17.6277 12.1182L17.6434 12.2354C17.7565 12.8189 18.3374 13.2997 19.0398 13.2998H20.9812C21.1437 13.2901 21.2498 13.1638 21.2498 13.0303V10.9697ZM22.7498 13.0303C22.7498 13.9944 21.9799 14.7656 21.0271 14.7998L20.9998 14.0361V14.0498L21.0271 14.7998H19.0398C17.629 14.7997 16.2597 13.7671 16.1326 12.2422L16.1336 12.2412C16.0594 11.4318 16.3443 10.6727 16.8514 10.1211L16.9559 10.0137C17.4669 9.49599 18.1654 9.20027 18.9197 9.2002H21.0271L20.9998 9.9502V9.96289L21.0271 9.2002C21.9798 9.2344 22.7496 10.0058 22.7498 10.9697V13.0303Z" fill="black"/>
<path d="M20.25 15.5V14.7998H19.04C17.6291 14.7998 16.2599 13.7672 16.1328 12.2422V12.2412C16.0543 11.3845 16.3789 10.584 16.9424 10.0264L17.1436 9.83984C17.6318 9.43003 18.2542 9.20021 18.9199 9.2002H20.25V8.5C20.25 7.2847 19.8814 6.30298 19.2744 5.59961C18.6688 4.89803 17.7847 4.42534 16.6631 4.29492L16.627 4.29004L16.4873 4.27051C16.3431 4.2551 16.1834 4.25 16 4.25H7C6.75575 4.25 6.52364 4.26792 6.30371 4.30176L6.2832 4.30371L6.19238 3.5791L6.18848 3.5498L6.2832 4.30371C5.17614 4.44266 4.30597 4.91714 3.70996 5.61621C3.11239 6.31731 2.75 7.29287 2.75 8.5V10.5C2.75 10.9142 2.41421 11.25 2 11.25C1.58579 11.25 1.25 10.9142 1.25 10.5V8.5C1.25 6.98713 1.70843 5.65246 2.56836 4.64355C3.42572 3.63775 4.6425 3.00381 6.07617 2.81934V2.81836C6.07876 2.81796 6.08139 2.81778 6.08398 2.81738C6.08819 2.81685 6.09247 2.81596 6.09668 2.81543V2.81641C6.39025 2.77235 6.69147 2.75 7 2.75H16C16.2641 2.75 16.5484 2.76081 16.8359 2.80566L16.8369 2.80469C18.295 2.97429 19.5358 3.60694 20.4102 4.62012C21.2832 5.63175 21.75 6.9753 21.75 8.5V9.9502C21.7499 10.3643 21.4142 10.7002 21 10.7002H18.9199C18.5609 10.7002 18.2454 10.8393 18.0176 11.0732L18.0039 11.0869L17.4805 10.5498L17.4697 10.54L18.0039 11.0869C17.738 11.3465 17.5897 11.7159 17.627 12.1084L17.6279 12.1182H17.627C17.6801 12.753 18.2911 13.2998 19.04 13.2998H21C21.4142 13.2998 21.7499 13.6357 21.75 14.0498V15.5C21.75 17.1704 21.1899 18.6207 20.1553 19.6553C19.1207 20.6899 17.6704 21.25 16 21.25H13.5C13.0858 21.25 12.75 20.9142 12.75 20.5C12.75 20.0858 13.0858 19.75 13.5 19.75H16C17.3296 19.75 18.3793 19.3101 19.0947 18.5947C19.8101 17.8793 20.25 16.8296 20.25 15.5ZM16.8799 12.1797L16.8438 12.1826L17.5205 12.126L16.8799 12.1797Z" fill="black"/>
</svg>
