<svg width="24" height="24" viewBox="0 0 24 24" fill="none" xmlns="http://www.w3.org/2000/svg">
<path opacity="0.4" d="M17.48 10.55C17.06 10.96 16.82 11.55 16.88 12.18C16.97 13.26 17.96 14.05 19.04 14.05H21V15.5C21 18.5 19 20.5 16 20.5H7C4 20.5 2 18.5 2 15.5V8.5C2 5.78 3.64 3.88 6.19 3.56C6.45 3.52 6.72 3.5 7 3.5H16C16.26 3.5 16.51 3.50999 16.75 3.54999C19.33 3.84999 21 5.76 21 8.5V9.95001H18.92C18.36 9.95001 17.85 10.17 17.48 10.55Z" fill="#597EF7"/>
<path d="M10 16V17.9786C10 19.6471 8.20923 21 6 21C3.79077 21 2 19.6471 2 17.9786V16C2 17.6684 3.79077 18.861 6 18.861C8.20923 18.861 10 17.6684 10 16Z" fill="#597EF7"/>
<path opacity="0.4" d="M10 13V15.8986C10 17.7072 8.20923 19 6 19C3.79077 19 2 17.7072 2 15.8986V13C2 13.5275 2.15385 14.0145 2.42462 14.4319C3.08308 15.4522 4.43692 16.1014 6 16.1014C7.56308 16.1014 8.91692 15.4522 9.57538 14.4319C9.84615 14.0145 10 13.5275 10 13Z" fill="#597EF7"/>
<path d="M10 12.5955C10 13.1745 9.84615 13.7091 9.57538 14.1673C8.91692 15.2873 7.56308 16 6 16C4.43692 16 3.08308 15.2873 2.42462 14.1673C2.15385 13.7091 2 13.1745 2 12.5955C2 10.61 3.79077 9 6 9C7.10769 9 8.10462 9.40091 8.83077 10.05C9.55077 10.7055 10 11.6027 10 12.5955Z" fill="#597EF7"/>
<path d="M22 10.9702V13.0302C22 13.5802 21.56 14.0302 21 14.0502H19.04C17.96 14.0502 16.97 13.2602 16.88 12.1802C16.82 11.5502 17.06 10.9602 17.48 10.5502C17.85 10.1702 18.36 9.9502 18.92 9.9502H21C21.56 9.9702 22 10.4202 22 10.9702Z" fill="#597EF7"/>
</svg>
