<svg width="24" height="24" viewBox="0 0 24 24" fill="none" xmlns="http://www.w3.org/2000/svg">
<path opacity="0.4" d="M16.19 2H7.81C4.17 2 2 4.17 2 7.81V16.18C2 19.83 4.17 22 7.81 22H16.18C19.82 22 21.99 19.83 21.99 16.19V7.81C22 4.17 19.83 2 16.19 2Z" fill="#597EF7"/>
<path d="M6.88 18.9001C6.47 18.9001 6.13 18.5601 6.13 18.1501V16.0801C6.13 15.6701 6.47 15.3301 6.88 15.3301C7.29 15.3301 7.63 15.6701 7.63 16.0801V18.1501C7.63 18.5701 7.29 18.9001 6.88 18.9001Z" fill="#597EF7"/>
<path d="M12 18.9C11.59 18.9 11.25 18.56 11.25 18.15V14C11.25 13.59 11.59 13.25 12 13.25C12.41 13.25 12.75 13.59 12.75 14V18.15C12.75 18.57 12.41 18.9 12 18.9Z" fill="#597EF7"/>
<path d="M17.12 18.8997C16.71 18.8997 16.37 18.5597 16.37 18.1497V11.9297C16.37 11.5197 16.71 11.1797 17.12 11.1797C17.53 11.1797 17.87 11.5197 17.87 11.9297V18.1497C17.87 18.5697 17.54 18.8997 17.12 18.8997Z" fill="#597EF7"/>
<path d="M17.87 5.81961C17.87 5.76961 17.85 5.70961 17.84 5.65961C17.83 5.61961 17.82 5.56961 17.81 5.52961C17.79 5.48961 17.76 5.45961 17.74 5.41961C17.71 5.37961 17.68 5.32961 17.64 5.29961C17.63 5.28961 17.63 5.27961 17.62 5.27961C17.59 5.25961 17.56 5.24961 17.53 5.22961C17.49 5.19961 17.44 5.16961 17.39 5.14961C17.34 5.12961 17.29 5.12961 17.24 5.11961C17.2 5.10961 17.17 5.09961 17.13 5.09961H14.2C13.79 5.09961 13.45 5.43961 13.45 5.84961C13.45 6.25961 13.79 6.59961 14.2 6.59961H15.45C13.07 9.09961 10.07 10.8596 6.7 11.7096C6.3 11.8096 6.05 12.2196 6.15 12.6196C6.23 12.9596 6.54 13.1896 6.88 13.1896C6.94 13.1896 7 13.1796 7.06 13.1696C10.63 12.2796 13.82 10.4296 16.37 7.80961V8.77961C16.37 9.18961 16.71 9.52961 17.12 9.52961C17.53 9.52961 17.87 9.18961 17.87 8.77961V5.84961C17.87 5.83961 17.87 5.82961 17.87 5.81961Z" fill="#597EF7"/>
</svg>
