<svg width="24" height="24" viewBox="0 0 24 24" fill="none" xmlns="http://www.w3.org/2000/svg">
<path d="M6.13 18.1504V16.0801C6.13 15.6659 6.46579 15.3301 6.88 15.3301C7.29422 15.3301 7.63 15.6659 7.63 16.0801V18.1504C7.62984 18.5645 7.29411 18.9004 6.88 18.9004C6.4659 18.9004 6.13017 18.5645 6.13 18.1504Z" fill="black"/>
<path d="M11.25 18.1494V14.0098C11.25 13.5956 11.5858 13.2598 12 13.2598C12.4142 13.2598 12.75 13.5956 12.75 14.0098V18.1494C12.75 18.5636 12.4142 18.8994 12 18.8994C11.5858 18.8994 11.25 18.5636 11.25 18.1494Z" fill="black"/>
<path d="M16.37 18.1494V11.9297C16.37 11.5155 16.7058 11.1797 17.12 11.1797C17.5342 11.1797 17.87 11.5155 17.87 11.9297V18.1494C17.87 18.5636 17.5342 18.8994 17.12 18.8994C16.7058 18.8994 16.37 18.5636 16.37 18.1494Z" fill="black"/>
<path d="M16.5489 5.36347C16.8175 5.04817 17.2912 5.00995 17.6066 5.27851C17.9219 5.54711 17.9591 6.02081 17.6905 6.33612L17.2306 6.87616L17.2296 6.87714L16.7667 6.48065L16.5968 6.33612L17.2296 6.87714C14.5779 9.97598 11.0223 12.1698 7.06164 13.1574C6.65982 13.2576 6.25279 13.0132 6.15246 12.6115C6.05226 12.2097 6.29659 11.8026 6.69835 11.7023C10.3575 10.7899 13.6417 8.76348 16.09 5.90253L16.5489 5.36347Z" fill="black"/>
<path d="M16.3697 8.76953V6.59961H14.19C13.7758 6.59961 13.44 6.26382 13.44 5.84961C13.44 5.4354 13.7758 5.09961 14.19 5.09961H17.1197C17.5339 5.09961 17.8697 5.4354 17.8697 5.84961V8.76953C17.8697 9.18374 17.5339 9.51953 17.1197 9.51953C16.7056 9.51936 16.3697 9.18364 16.3697 8.76953Z" fill="black"/>
<path d="M21.25 9C21.25 6.57397 20.7603 5.0708 19.8447 4.15527C18.9292 3.23974 17.426 2.75 15 2.75H9C6.57397 2.75 5.0708 3.23974 4.15527 4.15527C3.23974 5.0708 2.75 6.57397 2.75 9V15C2.75 17.426 3.23974 18.9292 4.15527 19.8447C5.0708 20.7603 6.57397 21.25 9 21.25H15C17.426 21.25 18.9292 20.7603 19.8447 19.8447C20.7603 18.9292 21.25 17.426 21.25 15V9ZM22.75 15C22.75 17.574 22.2397 19.5708 20.9053 20.9053C19.5708 22.2397 17.574 22.75 15 22.75H9C6.42603 22.75 4.4292 22.2397 3.09473 20.9053C1.76026 19.5708 1.25 17.574 1.25 15V9C1.25 6.42603 1.76026 4.4292 3.09473 3.09473C4.4292 1.76026 6.42603 1.25 9 1.25H15C17.574 1.25 19.5708 1.76026 20.9053 3.09473C22.2397 4.4292 22.75 6.42603 22.75 9V15Z" fill="black"/>
</svg>
