<svg width="24" height="24" viewBox="0 0 24 24" fill="none" xmlns="http://www.w3.org/2000/svg">
<path d="M21.25 8C21.25 5.99464 20.9812 5.04177 20.4697 4.53027C19.9582 4.01878 19.0054 3.75 17 3.75H7C4.99464 3.75 4.04177 4.01878 3.53027 4.53027C3.01878 5.04177 2.75 5.99464 2.75 8V16C2.75 18.0054 3.01878 18.9582 3.53027 19.4697C4.04177 19.9812 4.99464 20.25 7 20.25H17C19.0054 20.25 19.9582 19.9812 20.4697 19.4697C20.9812 18.9582 21.25 18.0054 21.25 16V8ZM22.75 16C22.75 17.9946 22.5188 19.5418 21.5303 20.5303C20.5418 21.5188 18.9946 21.75 17 21.75H7C5.00536 21.75 3.45823 21.5188 2.46973 20.5303C1.48122 19.5418 1.25 17.9946 1.25 16V8C1.25 6.00536 1.48122 4.45823 2.46973 3.46973C3.45823 2.48122 5.00536 2.25 7 2.25H17C18.9946 2.25 20.5418 2.48122 21.5303 3.46973C22.5188 4.45823 22.75 6.00536 22.75 8V16Z" fill="currentColor"/>
<path d="M19 7.25C19.4142 7.25 19.75 7.58579 19.75 8C19.75 8.41421 19.4142 8.75 19 8.75H14C13.5858 8.75 13.25 8.41421 13.25 8C13.25 7.58579 13.5858 7.25 14 7.25H19Z" fill="currentColor"/>
<path d="M19 11.25C19.4142 11.25 19.75 11.5858 19.75 12C19.75 12.4142 19.4142 12.75 19 12.75H15C14.5858 12.75 14.25 12.4142 14.25 12C14.25 11.5858 14.5858 11.25 15 11.25H19Z" fill="currentColor"/>
<path d="M19 15.25C19.4142 15.25 19.75 15.5858 19.75 16C19.75 16.4142 19.4142 16.75 19 16.75H17C16.5858 16.75 16.25 16.4142 16.25 16C16.25 15.5858 16.5858 15.25 17 15.25H19Z" fill="currentColor"/>
<path d="M9.56012 9.47949C9.55989 8.89427 9.08485 8.41992 8.49957 8.41992C7.91449 8.42015 7.44023 8.89441 7.44 9.47949C7.44 10.0648 7.91435 10.5398 8.49957 10.54C9.08499 10.54 9.56012 10.0649 9.56012 9.47949ZM11.0601 9.47949C11.0601 10.8933 9.91342 12.04 8.49957 12.04C7.08592 12.0398 5.94 10.8932 5.94 9.47949C5.94023 8.06598 7.08606 6.92015 8.49957 6.91992C9.91328 6.91992 11.0599 8.06584 11.0601 9.47949Z" fill="currentColor"/>
<path d="M7.66699 12.864C8.22227 12.8095 8.77882 12.8098 9.32617 12.864L9.32714 12.863C9.32911 12.8632 9.33104 12.8638 9.333 12.864H9.33496L9.33398 12.8649C11.1394 13.0302 12.5716 14.4511 12.7461 16.2585C12.7858 16.6707 12.4844 17.037 12.0723 17.0769C11.66 17.1167 11.2937 16.8143 11.2539 16.4021C11.1485 15.3121 10.2843 14.4551 9.19336 14.3571L9.25976 13.614L9.25488 13.6579L9.19336 14.3571H9.18554L8.8457 14.3317C8.50496 14.3149 8.15962 14.3232 7.81347 14.3571H7.8125L7.60839 14.3854C6.60782 14.5708 5.84456 15.3842 5.74609 16.4021C5.70628 16.8143 5.34003 17.1167 4.92773 17.0769C4.51556 17.037 4.21415 16.6707 4.2539 16.2585C4.429 14.445 5.86692 13.0392 7.66699 12.8649V12.864Z" fill="currentColor"/>
</svg>
