<svg width="32" height="32" viewBox="0 0 32 32" fill="none" xmlns="http://www.w3.org/2000/svg">
<circle cx="16" cy="16" r="16" fill="url(#paint0_linear_26_6297)"/>
<circle cx="4" cy="4" r="4" transform="matrix(-1 0 0 1 20 7)" fill="white" stroke="white" stroke-width="1.5"/>
<path d="M9 20.9347C9 20.0743 9.54085 19.3068 10.3511 19.0175V19.0175C14.004 17.7128 17.996 17.7128 21.6489 19.0175V19.0175C22.4591 19.3068 23 20.0743 23 20.9347V22.2502C23 23.4376 21.9483 24.3498 20.7728 24.1818L19.8184 24.0455C17.2856 23.6837 14.7144 23.6837 12.1816 24.0455L11.2272 24.1818C10.0517 24.3498 9 23.4376 9 22.2502V20.9347Z" fill="white" stroke="white" stroke-width="1.5"/>
<defs>
<linearGradient id="paint0_linear_26_6297" x1="0" y1="16" x2="32" y2="16" gradientUnits="userSpaceOnUse">
<stop stop-color="#84ACEF"/>
<stop offset="1" stop-color="#6C80AA"/>
</linearGradient>
</defs>
</svg>
