<svg width="24" height="24" viewBox="0 0 24 24" fill="none" xmlns="http://www.w3.org/2000/svg">
<mask id="mask0_1338_7607" style="mask-type:alpha" maskUnits="userSpaceOnUse" x="0" y="0" width="24" height="24">
<rect width="24" height="24" fill="#D9D9D9"/>
</mask>
<g mask="url(#mask0_1338_7607)">
<path d="M9.25 14.3653H6.5C5.99072 14.3653 5.49885 14.2916 5.0332 14.1563L6.30273 19.2325C6.35031 19.4227 6.36396 19.4754 6.37793 19.5166L6.44922 19.6866C6.64448 20.0672 7.02503 20.3258 7.45996 20.3614L7.75391 20.3653C8.00004 20.3653 8.07001 20.3644 8.12109 20.3594L8.23047 20.3438C8.77269 20.2424 9.19003 19.7942 9.24414 19.2364L9.25 18.8692V14.3653ZM21.25 9.11527C21.2498 7.85691 20.4038 6.79836 19.25 6.47172V11.7588C20.4038 11.4321 21.25 10.3737 21.25 9.11527ZM2.75488 9.30863C2.85531 11.29 4.49365 12.8653 6.5 12.8653H9.25V5.36527H6.5C4.42907 5.36527 2.75022 7.04439 2.75 9.11527L2.75488 9.30863ZM17.75 4.24222C17.75 3.70692 17.7499 3.35062 17.7295 3.09379C17.7163 2.92842 17.6972 2.85665 17.6914 2.83597C17.6503 2.78232 17.6171 2.76259 17.5508 2.75199C17.5274 2.75781 17.4498 2.77919 17.2871 2.85258C17.1616 2.90923 17.0144 2.98255 16.8369 3.07621L16.2031 3.41898C14.6703 4.25457 12.6032 5.19088 10.75 5.34183V12.8887C12.6033 13.0396 14.6702 13.9769 16.2031 14.8125L16.8369 15.1553C17.0144 15.249 17.1616 15.3223 17.2871 15.3789C17.4493 15.4521 17.5272 15.4727 17.5508 15.4786C17.617 15.4679 17.6493 15.4482 17.6904 15.3946C17.6964 15.3733 17.7165 15.3017 17.7295 15.1377C17.7499 14.8809 17.75 14.5246 17.75 13.9893V4.24222ZM19.25 4.93265C21.2393 5.28693 22.7498 7.02421 22.75 9.11527C22.75 11.2065 21.2394 12.9435 19.25 13.2979V13.9893C19.25 14.4981 19.2508 14.9254 19.2246 15.2559C19.2031 15.5272 19.158 15.8502 18.999 16.1338L18.9229 16.253C18.6645 16.6141 18.3176 16.8467 17.8975 16.9405L17.7129 16.9717C17.3295 17.0187 16.96 16.877 16.6699 16.7461C16.5125 16.6751 16.3349 16.5864 16.1377 16.4825L15.4854 16.1299C13.9964 15.3182 12.2245 14.5466 10.75 14.3946V18.8692C10.75 18.9747 10.7505 19.0676 10.749 19.1514L10.7373 19.3809C10.6183 20.6079 9.70043 21.5951 8.50781 21.8184L8.26562 21.8526C8.12412 21.8663 7.96493 21.8653 7.75391 21.8653C7.66961 21.8653 7.59533 21.8654 7.52734 21.8643L7.33691 21.8565C6.31212 21.7725 5.42583 21.1252 5.0293 20.1885L4.95703 19.9981C4.91861 19.8847 4.88763 19.7596 4.84668 19.5957L3.27246 13.2979L3.26172 13.2471C2.10335 12.3379 1.33625 10.9528 1.25684 9.38578L1.25 9.11527C1.25022 6.21596 3.60064 3.86527 6.5 3.86527H10.25C11.8099 3.86527 13.8237 3.00742 15.4854 2.1016L16.1377 1.74906C16.335 1.64507 16.5125 1.55544 16.6699 1.48441C16.9235 1.37 17.2381 1.24758 17.5693 1.25004L17.7129 1.2598L17.8975 1.29105C18.3177 1.38482 18.6645 1.61742 18.9229 1.97855L18.999 2.09672C19.1582 2.38033 19.203 2.70323 19.2246 2.97465C19.2509 3.3052 19.25 3.73324 19.25 4.24222V4.93265Z" fill="black"/>
</g>
</svg>
