<svg width="24" height="24" viewBox="0 0 24 24" fill="none" xmlns="http://www.w3.org/2000/svg">
<mask id="mask0_1323_6867" style="mask-type:alpha" maskUnits="userSpaceOnUse" x="0" y="0" width="24" height="24">
<rect width="24" height="24" fill="#D9D9D9"/>
</mask>
<g mask="url(#mask0_1323_6867)">
<path opacity="0.4" d="M18.5 13.6152C20.433 13.6152 22 12.0482 22 10.1152C22 8.18224 20.433 6.61523 18.5 6.61523V13.6152Z" fill="#597EF7"/>
<path d="M5.57464 20.4139L4 14.1153L3.92281 13.8047C4.65279 14.3156 5.54139 14.6153 6.49999 14.6153H10V19.8691C10 20.0977 10 20.2121 9.99066 20.3084C9.89833 21.2603 9.14499 22.0136 8.19307 22.106C8.09676 22.1153 7.98243 22.1153 7.75379 22.1153C7.57119 22.1153 7.4799 22.1153 7.39851 22.1086C6.60351 22.0436 5.92316 21.5124 5.66726 20.7569C5.64107 20.6796 5.61893 20.591 5.57464 20.4139Z" fill="#597EF7"/>
<path opacity="0.4" d="M10 14.6152H6.5C4.01472 14.6152 2 12.6005 2 10.1152C2.00022 7.63014 4.01485 5.61523 6.5 5.61523H10V14.6152Z" fill="#597EF7"/>
<path d="M17.6211 3.00371C17.9164 3.03988 18.1404 3.17195 18.3135 3.41387C18.5002 3.67483 18.5 4.19771 18.5 5.24199V14.9891C18.5 16.0331 18.5 16.5552 18.3135 16.8162C18.1404 17.0582 17.9164 17.1912 17.6211 17.2273C17.3026 17.266 16.8166 17.0003 15.8447 16.4705C14.1777 15.5618 12.0164 14.615 10.25 14.615H10V5.61504H10.25C12.0164 5.61504 14.1777 4.66833 15.8447 3.75957C16.8166 3.22978 17.3026 2.965 17.6211 3.00371Z" fill="#597EF7"/>
</g>
</svg>
