<svg width="24" height="24" viewBox="0 0 24 24" fill="none" xmlns="http://www.w3.org/2000/svg">
<path d="M20 4.00024H4C3.46957 4.00024 2.96086 4.21096 2.58579 4.58603C2.21071 4.9611 2 5.46981 2 6.00024V18.0002C2 18.5307 2.21071 19.0394 2.58579 19.4145C2.96086 19.7895 3.46957 20.0002 4 20.0002H13.09C13.0294 19.6704 12.9993 19.3356 13 19.0002C13 17.4089 13.6321 15.8828 14.7574 14.7576C15.8826 13.6324 17.4087 13.0002 19 13.0002C20.0545 12.9963 21.0907 13.2761 22 13.8102V6.00024C22 5.46981 21.7893 4.9611 21.4142 4.58603C21.0391 4.21096 20.5304 4.00024 20 4.00024V4.00024ZM20 11.0002H4V8.00024H20V11.0002ZM20 15.0002V18.0002H23V20.0002H20V23.0002H18V20.0002H15V18.0002H18V15.0002H20Z" fill="white"/>
</svg>
