<svg width="24" height="24" viewBox="0 0 24 24" fill="none" xmlns="http://www.w3.org/2000/svg">
<path d="M21.25 12C21.25 10.7847 20.8814 9.80298 20.2744 9.09961C19.6688 8.39803 18.7847 7.92534 17.6631 7.79492L17.627 7.79004L17.4873 7.77051C17.3431 7.7551 17.1834 7.75 17 7.75H7C6.75575 7.75 6.52364 7.76792 6.30371 7.80176L6.2832 7.80371L6.19238 7.0791L6.18848 7.0498L6.2832 7.80371C5.17614 7.94266 4.30597 8.41714 3.70996 9.11621C3.11239 9.81731 2.75 10.7929 2.75 12V17C2.75 18.3296 3.18986 19.3793 3.90527 20.0947C4.62069 20.8101 5.67044 21.25 7 21.25H17C18.3296 21.25 19.3793 20.8101 20.0947 20.0947C20.8101 19.3793 21.25 18.3296 21.25 17V12ZM22.75 17C22.75 18.6704 22.1899 20.1207 21.1553 21.1553C20.1207 22.1899 18.6704 22.75 17 22.75H7C5.32956 22.75 3.87931 22.1899 2.84473 21.1553C1.81014 20.1207 1.25 18.6704 1.25 17V12C1.25 10.4871 1.70843 9.15246 2.56836 8.14355C3.42572 7.13775 4.6425 6.50381 6.07617 6.31934V6.31836C6.07876 6.31796 6.08139 6.31778 6.08398 6.31738C6.08819 6.31685 6.09247 6.31596 6.09668 6.31543V6.31641C6.39025 6.27235 6.69147 6.25 7 6.25H17C17.2641 6.25 17.5484 6.26081 17.8359 6.30566L17.8369 6.30469C19.295 6.47429 20.5358 7.10694 21.4102 8.12012C22.2832 9.13175 22.75 10.4753 22.75 12V17Z" fill="black"/>
<path d="M9.65136 2.3381C11.3221 0.839097 13.8992 0.888904 15.5098 2.48751L15.5146 2.49239L14.9814 3.01974L15.5146 2.49337L17.2578 4.25606L17.3984 4.40157C18.0385 5.09311 18.4042 5.94026 18.4873 6.82442L18.501 7.01388L18.5 7.09884C18.4873 7.29448 18.3981 7.47875 18.25 7.61056C18.1017 7.74247 17.9079 7.80938 17.7119 7.79903L17.6279 7.79024L17.4883 7.77071C17.3442 7.75534 17.1842 7.75021 17.001 7.75021H7.00097C6.75693 7.75023 6.52542 7.76816 6.30566 7.80196L6.20214 7.80978C5.96089 7.81327 5.72957 7.70055 5.58496 7.50216C5.41984 7.27559 5.39514 6.97558 5.5205 6.72481L5.67089 6.45724C5.83321 6.19737 6.02918 5.96224 6.24121 5.75021L9.49023 2.49044L9.49316 2.48751L9.65136 2.3381ZM14.4531 3.55294C13.3756 2.48325 11.6274 2.48325 10.5498 3.55294L7.86035 6.25021H16.8203C16.6878 5.91505 16.4848 5.59979 16.2051 5.32442L16.1982 5.31759L14.4531 3.55196V3.55294Z" fill="black"/>
<path d="M16.25 14.5C16.25 12.9858 17.4858 11.75 19 11.75H22C22.4142 11.75 22.75 12.0858 22.75 12.5C22.75 12.9142 22.4142 13.25 22 13.25H19C18.3142 13.25 17.75 13.8142 17.75 14.5C17.75 15.1858 18.3142 15.75 19 15.75H22C22.4142 15.75 22.75 16.0858 22.75 16.5C22.75 16.9142 22.4142 17.25 22 17.25H19C17.4858 17.25 16.25 16.0142 16.25 14.5Z" fill="black"/>
</svg>
